FFmpeg version SVN-r25716, Copyright (c) 2000-2010 the FFmpeg developers  built on Nov 10 2010 12:23:18 with gcc 4.1.2 20080704 (Red Hat 4.1.2-48)  configuration: --enable-libmp3lame --enable-shared --disable-mmx --arch=x86_64  libavutil     50.33. 0 / 50.33. 0  libavcore      0.12. 1 /  0.12. 1  libavcodec    52.94. 4 / 52.94. 4  libavformat   52.84. 0 / 52.84. 0  libavdevice   52. 2. 2 / 52. 2. 2  libavfilter    1.59. 0 /  1.59. 0  libswscale     0.12. 0 /  0.12. 0Seems stream 0 codec frame rate differs from container frame rate: 1200.00 (1200/1) -> 33.50 (67/2)Input #0, mov,mp4,m4a,3gp,3g2,mj2, from '/RAID10/data/converted_video_files/8103.mov':  Metadata:    major_brand     : qt      minor_version   : 537199360    compatible_brands: qt    Duration: 00:00:06.99, start: 0.000000, bitrate: 1042 kb/s    Stream #0.0(eng): Video: h264, yuv420p, 250x510, 1036 kb/s, 33.58 fps, 33.50 tbr, 600 tbn, 1200 tbc[buffer @ 0x10ff4220] w:250 h:510 pixfmt:yuv420pOutput #0, flv, to '/RAID10/data/converted_video_files/8103.flv':  Metadata:    encoder         : Lavf52.84.0    Stream #0.0(eng): Video: flv, yuv420p, 250x510, q=2-31, 600 kb/s, 1k tbn, 24 tbcStream mapping:  Stream #0.0 -> #0.0Press [q] to stop encodingframe=   47 fps=  0 q=13.8 size=     280kB time=1.96 bitrate=1173.3kbits/s dup=0 drop=18    frame=  104 fps=103 q=12.1 size=     455kB time=4.33 bitrate= 860.5kbits/s dup=0 drop=41    frame=  157 fps=103 q=15.5 size=     632kB time=6.54 bitrate= 791.8kbits/s dup=0 drop=62    frame=  168 fps=104 q=13.4 Lsize=     665kB time=7.00 bitrate= 778.5kbits/s dup=0 drop=67    video:662kB audio:0kB global headers:0kB muxing overhead 0.427277%